<?xml version="1.0" encoding="utf-8"?>
<!-- Generator: Adobe Illustrator 19.0.0, SVG Export Plug-In . SVG Version: 6.00 Build 0)  -->
<svg version="1.1" id="Capa_1" xmlns="http://www.w3.org/2000/svg" xmlns:xlink="http://www.w3.org/1999/xlink" x="0px" y="0px"
	 viewBox="0 0 2000 97.2" style="enable-background:new 0 0 2000 97.2;" xml:space="preserve">
<style type="text/css">
	.st0{fill:#FFFFFF;}
	.st1{font-family:'Fmfvgfqosabohbcyptzjyxnquqt';}
	.st2{font-size:20px;}
</style>
<rect id="XMLID_14_" width="2000" height="97.2"/>
<text id="XMLID_15_" transform="matrix(1 0 0 1 54.3451 58.037)" class="st0 st1 st2">H M R O ©</text>
<text id="XMLID_30_" transform="matrix(1 0 0 1 1659.3361 56.6005)" class="st0 st1 st2">W E B  P A G E  T E S T ©   2 0 1 7</text>
<g id="XMLID_29_">
	<g id="XMLID_46_">
		<path id="Behance_1_" class="st0" d="M1573.4,29.3h-16.3v-4h16.3L1573.4,29.3C1573.4,29.3,1573.4,29.3,1573.4,29.3z M1546.3,45.9
			c1.1,1.6,1.6,3.6,1.6,5.9c0,2.4-0.6,4.6-1.8,6.5c-0.8,1.3-1.7,2.3-2.9,3.2c-1.3,1-2.8,1.7-4.6,2c-1.8,0.4-3.7,0.5-5.7,0.5h-18.2
			V23.6h19.6c4.9,0.1,8.4,1.5,10.5,4.3c1.2,1.7,1.9,3.8,1.9,6.2c0,2.5-0.6,4.5-1.9,6c-0.7,0.8-1.7,1.6-3.1,2.3
			C1543.7,43.1,1545.2,44.3,1546.3,45.9z M1524,39.5h8.6c1.8,0,3.2-0.3,4.3-1c1.1-0.7,1.6-1.9,1.6-3.6c0-1.9-0.7-3.1-2.2-3.7
			c-1.2-0.4-2.8-0.6-4.8-0.6h-7.5V39.5z M1539.3,51.3c0-2.1-0.9-3.6-2.6-4.3c-1-0.4-2.3-0.7-4-0.7h-8.7V57h8.6
			c1.8,0,3.1-0.2,4.1-0.7C1538.4,55.4,1539.3,53.7,1539.3,51.3z M1579.5,44.7c0.2,1.3,0.3,3.2,0.2,5.8h-21.1c0.1,2.9,1.1,5,3,6.1
			c1.2,0.7,2.5,1.1,4.2,1.1c1.7,0,3.1-0.4,4.2-1.3c0.6-0.5,1.1-1.1,1.6-2h7.7c-0.2,1.7-1.1,3.5-2.8,5.2c-2.6,2.8-6.2,4.2-10.9,4.2
			c-3.9,0-7.3-1.2-10.2-3.6c-2.9-2.4-4.4-6.3-4.4-11.6c0-5,1.3-8.9,4-11.6c2.7-2.7,6.1-4,10.4-4c2.5,0,4.8,0.5,6.8,1.4
			c2,0.9,3.7,2.3,5,4.3C1578.4,40.4,1579.1,42.4,1579.5,44.7z M1571.9,45.4c-0.1-2-0.8-3.5-2-4.6c-1.2-1-2.7-1.6-4.5-1.6
			c-1.9,0-3.5,0.6-4.5,1.7c-1.1,1.1-1.7,2.6-2,4.5L1571.9,45.4L1571.9,45.4z"/>
	</g>
	<g id="XMLID_45_">
	</g>
	<g id="XMLID_44_">
	</g>
	<g id="XMLID_43_">
	</g>
	<g id="XMLID_42_">
	</g>
	<g id="XMLID_41_">
	</g>
	<g id="XMLID_40_">
	</g>
	<g id="XMLID_39_">
	</g>
	<g id="XMLID_38_">
	</g>
	<g id="XMLID_37_">
	</g>
	<g id="XMLID_36_">
	</g>
	<g id="XMLID_35_">
	</g>
	<g id="XMLID_34_">
	</g>
	<g id="XMLID_33_">
	</g>
	<g id="XMLID_32_">
	</g>
	<g id="XMLID_31_">
	</g>
</g>
</svg>
